# AST/ASF file generated using VICON BodyLanguage
# -----------------------------------------------
:version 1.10
:name VICON
:units
  mass 1.0
  length 0.45
  angle deg
:documentation
   .ast/.asf automatically generated from VICON data using
   VICON BodyBuilder and BodyLanguage model FoxedUp or BRILLIANT.MOD
:root
   order TX TY TZ RX RY RZ
   axis XYZ
   position 0 0 0  
   orientation 0 0 0 
:bonedata
  begin
     id 1 
     name lhipjoint
     direction 0.78388 -0.462562 0.414208 
     length 3.01181 
     axis 0 0 0  XYZ
  end
  begin
     id 2 
     name lfemur
     direction 0.34202 -0.939693 0  
     length 6.04673  
     axis 0 0 20  XYZ
    dof rx ry rz
    limits (-160.0 20.0)
           (-70.0 70.0)
           (-60.0 70.0)
  end
  begin
     id 3 
     name ltibia
     direction 0.34202 -0.939693 0   
     length 7.211   
     axis 0 0 20   XYZ
    dof rx
    limits (-10.0 170.0)
  end
  begin
     id 4 
     name lfoot
     direction 0.121887 -0.334882 0.934344   
     length 2.13567   
     axis -90 7.62852e-016 20   XYZ
    dof rx rz
    limits (-45.0 90.0)
           (-70.0 20.0)
  end
  begin
     id 5 
     name ltoes
     direction 1.53555e-011 -4.2179e-011 1   
     length 1.05957   
     axis -90 7.62852e-016 20   XYZ
    dof rx
    limits (-90.0 20.0)
  end
  begin
     id 6 
     name rhipjoint
     direction -0.769387 -0.475875 0.426129   
     length 2.92756  
     axis 0 0 0  XYZ 
  end
  begin
     id 7 
     name rfemur
     direction -0.34202 -0.939693 0   
     length 6.35468   
     axis 0 0 -20   XYZ
    dof rx ry rz
    limits (-160.0 20.0)
           (-70.0 70.0)
           (-70.0 60.0)
  end
  begin
     id 8 
     name rtibia
     direction -0.34202 -0.939693 0   
     length 7.37886   
     axis 0 0 -20   XYZ
    dof rx
    limits (-10.0 170.0)
 end
 begin
     id 9 
     name rfoot
     direction -0.101763 -0.279592 0.954711   
     length 2.21478  
     axis -90 -7.62852e-016 -20   XYZ
    dof rx rz
    limits (-45.0 90.0)
           (-20.0 70.0)
  end
  begin
     id 10 
     name rtoes
     direction -1.53494e-011 -4.21851e-011 1   
     length 1.10506   
     axis -90 -7.62852e-016 -20   XYZ
    dof rx
    limits (-90.0 20.0)
  end
  begin
     id 11 
     name lowerback
     direction 0.00747405 0.999267 0.0375481   
     length 2.13259   
     axis 0 0 0   XYZ
    dof rx ry rz
    limits (-20.0 45.0)
           (-30.0 30.0)
           (-30.0 30.0)
  end
  begin
     id 12 
     name upperback
     direction 0.00661626 0.996177 0.0871029   
     length 2.10528   
     axis 0 0 0   XYZ
    dof rx ry rz
    limits (-20.0 45.0)
           (-30.0 30.0)
           (-30.0 30.0)
  end
  begin
     id 13 
     name thorax
     direction 0.00320659 0.997679 0.0680167   
     length 2.11338   
     axis 0 0 0   XYZ
    dof rx ry rz
    limits (-20.0 45.0)
           (-30.0 30.0)
           (-30.0 30.0)
  end
  begin
     id 14 
     name lowerneck
     direction 0.0374841 0.973033 0.227602   
     length 1.42765   
     axis 0 0 0   XYZ
    dof rx ry rz
    limits (-20.0 45.0)
           (-30.0 30.0)
           (-30.0 30.0)
  end
  begin
     id 15 
     name upperneck
     direction 0.00481585 0.989155 -0.146795   
     length 1.47593   
     axis 0 0 0   XYZ
    dof rx ry rz
    limits (-20.0 45.0)
           (-30.0 30.0)
           (-30.0 30.0)
  end
  begin
     id 16
     name head
     direction -0.00292522 0.997206 -0.0746423  
     length 1.48116  
     axis 0 0 0   XYZ
    dof rx ry rz
    limits (-20.0 45.0)
           (-30.0 30.0)
           (-30.0 30.0)
  end
  begin
     id 17 
     name lclavicle
     direction 0.951444 0.305606 0.0368784  
     length 3.01855  
     axis 0 0 0   XYZ
    dof ry rz
    limits (-20.0 10.0)
           (0.0 20.0)
  end
  begin
     id 18 
     name lhumerus
     direction 1 -4.48977e-011 2.61664e-027   
     length 5.52731   
     axis 180 -30 -90   XYZ
    dof rx ry rz
    limits (-60.0 90.0)
           (-90.0 90.0)
           (-90.0 90.0)
  end
  begin
     id 19
     name lradius
     direction 1 -4.48944e-011 8.22157e-027   
     length 3.11059   
     axis 180 -30 -90   XYZ
    dof rx
    limits (-10.0 170.0)
  end
  begin
     id 20
     name lwrist
     direction 1 -4.48976e-011 1.5779e-026   
     length 1.5553   
     axis -1.15221e-014 90 90   XYZ
    dof ry
    limits (-180.0 0.0)
 end
  begin
     id 21 
     name lhand
     direction 1 -4.49025e-011 3.1558e-026   
     length 0.419626   
     axis -2.01367e-014 90 90   XYZ
    dof rx rz
    limits (-90.0 90.0)
           (-45.0 45.0)
  end
  begin
     id 22 
     name lfingers
     direction 1 -4.4904e-011 6.31161e-026   
     length 0.338313   
     axis -4.02734e-014 90 90   XYZ
    dof rx
    limits (0.0 90.0)
  end
  begin
     id 23
     name lthumb
     direction 0.707107 -6.35004e-011 0.707107   
     length 0.485752   
     axis -90 45 2.85299e-015   XYZ
    dof rx rz
    limits (-45.0 45.0)
           (-45.0 45.0)
  end
  begin
     id 24 
     name rclavicle
     direction -0.968876 0.223791 0.105816   
     length 3.04177  
     axis 0 0 0   XYZ 
    dof ry rz
    limits (-10.0 20.0)
           (-20.0 0.0)
  end
  begin
     id 25 
     name rhumerus
     direction -1 -4.48962e-011 -1.01384e-027  
     length 5.25396   
     axis 180 30 90   XYZ
    dof rx ry rz
    limits (-90.0 60.0)
           (-90.0 90.0)
           (-90.0 90.0)
  end
  begin
     id 26 
     name rradius
     direction -1 -4.48955e-011 8.88542e-027   
     length 3.10567   
     axis 180 30 90   XYZ
    dof rx
    limits (-10.0 170.0)
  end
  begin
     id 27 
     name rwrist
     direction -1 -4.48994e-011 1.5779e-026   
     length 1.55283   
     axis -1.15221e-014 -90 -90   XYZ
    dof ry
    limits (-180.0 0.0)
  end
  begin
     id 28
     name rhand
     direction -1 -4.48891e-011 3.1558e-026   
     length 0.498676   
     axis -2.01367e-014 -90 -90   XYZ
    dof rx rz
    limits (-90.0 90.0)
           (-45.0 45.0)
  end
  begin
     id 29
     name rfingers
     direction -1 -4.48972e-011 6.31161e-026   
     length 0.402045   
     axis -4.02734e-014 -90 -90   XYZ
    dof rx
    limits (0.0 90.0)
  end
  begin
     id 30
     name rthumb
     direction -0.707107 -6.34849e-011 0.707107   
     length 0.577259   
     axis -90 -45 -2.85299e-015   XYZ
    dof rx rz
    limits (-45.0 45.0)
           (-45.0 45.0)
  end
:hierarchy
  begin
    root lhipjoint rhipjoint lowerback
    lhipjoint lfemur
    lfemur ltibia
    ltibia lfoot
    lfoot ltoes
    rhipjoint rfemur
    rfemur rtibia
    rtibia rfoot
    rfoot rtoes
    lowerback upperback
    upperback thorax
    thorax lowerneck lclavicle rclavicle
    lowerneck upperneck
    upperneck head
    lclavicle lhumerus
    lhumerus lradius
    lradius lwrist
    lwrist lhand lthumb
    lhand lfingers
    rclavicle rhumerus
    rhumerus rradius
    rradius rwrist
    rwrist rhand rthumb
    rhand rfingers
  end

#!OML:ASF H:\Pregnant\Project 1\Capture day 1\Session 1\femalepreg.ASF
:FULLY-SPECIFIED
:DEGREES
91
root 3.13527 15.3502 30.8166 187.278 -83.6909 -164.795
lowerback -15.8897 2.68703 0.687822
upperback -5.72786 3.1607 -0.789891
thorax 2.89594 1.4238 -0.653038
lowerneck -13.1336 11.2029 13.7561
upperneck 21.4308 10.8233 4.94016
head 9.54759 6.54425 0.867871
rclavicle 1.15916e-014 3.65764e-014
rhumerus -48.3047 -10.1944 -69.5844
rradius 55.7272
rwrist -51.4757
rhand -10.911 -44.446
rfingers 7.12502
rthumb 15.1062 -73.8748
lclavicle 1.15916e-014 3.65764e-014
lhumerus -40.7191 23.0083 52.5484
lradius 48.503
lwrist 69.008
lhand -15.5789 14.3687
lfingers 7.12502
lthumb 10.6064 44.081
rfemur -36.6519 4.72062 19.598
rtibia 40.5008
rfoot -20.972 -8.43062
rtoes -13.782
lfemur -35.9816 -6.53405 -16.5075
ltibia 27.5775
lfoot -10.3344 10.6292
ltoes -14.4248
92
root 3.13568 15.3581 30.8058 187.622 -83.6156 -165.191
lowerback -15.9156 2.68109 0.689053
upperback -5.74679 3.14967 -0.777634
thorax 2.88885 1.41736 -0.642387
lowerneck -13.3227 11.0088 13.5021
upperneck 21.4802 10.5804 4.95108
head 9.56975 6.41726 0.883907
rclavicle -9.14409e-015 5.76476e-015
rhumerus -48.0169 -9.9727 -69.8338
rradius 55.6082
rwrist -50.9158
rhand -11.1429 -44.3858
rfingers 7.12502
rthumb 14.8828 -73.8312
lclavicle -9.14409e-015 5.76476e-015
lhumerus -40.5216 22.3116 52.9394
lradius 48.2918
lwrist 68.9875
lhand -16.1702 13.9664
lfingers 7.12502
lthumb 10.036 43.7071
rfemur -36.496 4.90301 19.5737
rtibia 40.2999
rfoot -20.8836 -8.55122
rtoes -13.786
lfemur -35.7166 -6.6769 -16.4451
ltibia 27.2483
lfoot -10.1772 10.8447
ltoes -14.4654
93
root 3.13601 15.3662 30.7952 188.006 -83.5431 -165.635
lowerback -15.9342 2.67397 0.681294
upperback -5.76403 3.139 -0.771638
thorax 2.87958 1.41123 -0.633417
lowerneck -13.5268 10.7983 13.2512
upperneck 21.5391 10.3128 4.95797
head 9.59828 6.27883 0.895995
rclavicle 6.95746e-014 1.51076e-014
rhumerus -47.7145 -9.74121 -70.1268
rradius 55.4434
rwrist -50.2888
rhand -11.5042 -44.3684
rfingers 7.12502
rthumb 14.5347 -73.8393
lclavicle 6.95746e-014 1.51076e-014
lhumerus -40.3032 21.5179 53.3952
lradius 48.0707
lwrist 68.9621
lhand -16.8511 13.4379
lfingers 7.12502
lthumb 9.37898 43.2093
rfemur -36.3238 5.09116 19.5411
rtibia 40.0912
rfoot -20.8033 -8.68525
rtoes -13.7684
lfemur -35.4307 -6.8312 -16.3901
ltibia 26.899
lfoot -10.0165 11.0643
ltoes -14.4818
94
root 3.13618 15.3743 30.7848 188.418 -83.4751 -166.117
lowerback -15.9475 2.6611 0.661913
upperback -5.77889 3.12284 -0.766473
thorax 2.86934 1.40258 -0.619934
lowerneck -13.733 10.571 12.9952
upperneck 21.6026 10.023 4.96513
head 9.62844 6.12978 0.906096
rclavicle -5.61567e-015 2.18663e-015
rhumerus -47.3902 -9.48064 -70.4649
rradius 55.2287
rwrist -49.6069
rhand -12.0209 -44.3763
rfingers 7.12502
rthumb 14.0369 -73.8823
lclavicle -5.61567e-015 2.18663e-015
lhumerus -40.0789 20.6486 53.9064
lradius 47.8427
lwrist 68.9137
lhand -17.5773 12.862
lfingers 7.12502
lthumb 8.67824 42.6636
rfemur -36.1355 5.25982 19.5078
rtibia 39.8744
rfoot -20.7284 -8.81748
rtoes -13.7894
lfemur -35.1246 -6.99731 -16.342
ltibia 26.5307
lfoot -9.85171 11.2882
ltoes -14.4724
95
root 3.13625 15.3825 30.7749 188.839 -83.4152 -166.611
lowerback -15.9594 2.64346 0.635203
upperback -5.79317 3.10153 -0.760463
thorax 2.85844 1.39147 -0.602428
lowerneck -13.9488 10.3293 12.7429
upperneck 21.6794 9.71205 4.96686
head 9.66576 5.97095 0.911901
rclavicle 2.28727e-014 -4.11484e-014
rhumerus -47.0471 -9.179 -70.8491
rradius 54.9651
rwrist -48.8759
rhand -12.6988 -44.4065
rfingers 7.12502
rthumb 13.3835 -73.9566
lclavicle 2.28727e-014 -4.11484e-014
lhumerus -39.8562 19.7223 54.4728
lradius 47.6116
lwrist 68.8185
lhand -18.3141 12.3235
lfingers 7.12502
lthumb 7.96716 42.1533
rfemur -35.9356 5.45466 19.4609
rtibia 39.6501
rfoot -20.6608 -8.97739
rtoes -13.7672
lfemur -34.807 -7.18328 -16.2954
ltibia 26.1453
lfoot -9.6793 11.5191
ltoes -14.47
96
root 3.13629 15.3908 30.7654 189.264 -83.3619 -167.112
lowerback -15.9698 2.62228 0.600176
upperback -5.80642 3.07675 -0.749779
thorax 2.84706 1.37879 -0.576019
lowerneck -14.1775 10.0701 12.497
upperneck 21.774 9.37952 4.9436
head 9.71349 5.80058 0.906543
rclavicle -3.04513e-014 -1.98785e-015
rhumerus -46.6851 -8.8316 -71.2718
rradius 54.6531
rwrist -48.1026
rhand -13.5037 -44.476
rfingers 7.12502
rthumb 12.6076 -74.0755
lclavicle -3.04513e-014 -1.98785e-015
lhumerus -39.6409 18.7567 55.0967
lradius 47.3795
lwrist 68.6593
lhand -18.9977 11.9337
lfingers 7.12502
lthumb 7.30742 41.7875
rfemur -35.7262 5.66437 19.4049
rtibia 39.4198
rfoot -20.5998 -9.15267
rtoes -13.7107
lfemur -34.48 -7.38723 -16.2496
ltibia 25.7454
lfoot -9.50191 11.7575
ltoes -14.4537
